<svg width="44" height="44" viewBox="0 0 44 44" fill="none" xmlns="http://www.w3.org/2000/svg">
<path d="M4 0.499512H40C41.933 0.499512 43.5 2.06652 43.5 3.99951V39.9995C43.5 41.9325 41.933 43.4995 40 43.4995H4C2.067 43.4995 0.5 41.9325 0.5 39.9995V3.99951C0.5 2.06652 2.067 0.499512 4 0.499512Z" stroke="#D9D9D9"/>
<mask id="path-2-inside-1_104_160" fill="white">
<path d="M34 21.9995C34 27.9885 29.606 32.9535 23.87 33.8545V25.4915H26.659L27.19 22.0315H23.87V19.7865C23.87 18.8395 24.334 17.9175 25.82 17.9175H27.329V14.9715C27.329 14.9715 25.959 14.7375 24.65 14.7375C21.916 14.7375 20.13 16.3945 20.13 19.3935V22.0305H17.091V25.4905H20.13V33.8535C14.395 32.9515 10 27.9875 10 21.9995C10 15.3725 15.373 9.99951 22 9.99951C28.627 9.99951 34 15.3715 34 21.9995Z"/>
</mask>
<path d="M34 21.9995C34 27.9885 29.606 32.9535 23.87 33.8545V25.4915H26.659L27.19 22.0315H23.87V19.7865C23.87 18.8395 24.334 17.9175 25.82 17.9175H27.329V14.9715C27.329 14.9715 25.959 14.7375 24.65 14.7375C21.916 14.7375 20.13 16.3945 20.13 19.3935V22.0305H17.091V25.4905H20.13V33.8535C14.395 32.9515 10 27.9875 10 21.9995C10 15.3725 15.373 9.99951 22 9.99951C28.627 9.99951 34 15.3715 34 21.9995Z" fill="url(#paint0_linear_104_160)"/>
<path d="M23.87 33.8545H2.53667V58.8004L27.1804 54.9294L23.87 33.8545ZM23.87 25.4915V4.15818H2.53667V25.4915H23.87ZM26.659 25.4915V46.8248H44.9681L47.7455 28.7276L26.659 25.4915ZM27.19 22.0315L48.2765 25.2676L52.0471 0.698177H27.19V22.0315ZM23.87 22.0315H2.53667V43.3648H23.87V22.0315ZM27.329 17.9175V39.2508H48.6623V17.9175H27.329ZM27.329 14.9715H48.6623V-3.02697L30.9208 -6.05728L27.329 14.9715ZM20.13 22.0305V43.3638H41.4633V22.0305H20.13ZM17.091 22.0305V0.697178H-4.24233V22.0305H17.091ZM17.091 25.4905H-4.24233V46.8238H17.091V25.4905ZM20.13 25.4905H41.4633V4.15718H20.13V25.4905ZM20.13 33.8535L16.8154 54.9278L41.4633 58.8044V33.8535H20.13ZM34 21.9995H12.6667C12.6667 17.306 16.0961 13.4807 20.5596 12.7796L23.87 33.8545L27.1804 54.9294C43.1159 52.4263 55.3333 38.671 55.3333 21.9995H34ZM23.87 33.8545H45.2033V25.4915H23.87H2.53667V33.8545H23.87ZM23.87 25.4915V46.8248H26.659V25.4915V4.15818H23.87V25.4915ZM26.659 25.4915L47.7455 28.7276L48.2765 25.2676L27.19 22.0315L6.10354 18.7954L5.57254 22.2554L26.659 25.4915ZM27.19 22.0315V0.698177H23.87V22.0315V43.3648H27.19V22.0315ZM23.87 22.0315H45.2033V19.7865H23.87H2.53667V22.0315H23.87ZM23.87 19.7865H45.2033C45.2033 22.4151 44.5954 27.6286 40.423 32.4527C35.7514 37.8538 29.7091 39.2508 25.82 39.2508V17.9175V-3.41582C20.4449 -3.41582 13.4276 -1.55781 8.15247 4.54111C3.37656 10.0629 2.53667 16.2109 2.53667 19.7865H23.87ZM25.82 17.9175V39.2508H27.329V17.9175V-3.41582H25.82V17.9175ZM27.329 17.9175H48.6623V14.9715H27.329H5.99567V17.9175H27.329ZM27.329 14.9715C30.9208 -6.05728 30.9191 -6.05756 30.9175 -6.05784C30.917 -6.05794 30.9153 -6.05822 30.9142 -6.05841C30.912 -6.05879 30.9097 -6.05917 30.9074 -6.05956C30.9029 -6.06033 30.8983 -6.06112 30.8935 -6.06192C30.884 -6.06353 30.8741 -6.06521 30.8638 -6.06694C30.8432 -6.0704 30.821 -6.07411 30.7972 -6.07805C30.7497 -6.08592 30.6957 -6.09472 30.6358 -6.1043C30.5162 -6.12343 30.3712 -6.14592 30.2042 -6.17052C29.8737 -6.21921 29.4386 -6.27893 28.9299 -6.33773C28.0043 -6.44471 26.4415 -6.59582 24.65 -6.59582V14.7375V36.0708C24.365 36.0708 24.1834 36.059 24.127 36.055C24.0901 36.0525 24.0656 36.0502 24.0534 36.0491C24.0409 36.0479 24.0337 36.0471 24.0309 36.0468C24.0283 36.0465 24.0174 36.0452 23.9848 36.0404C23.9667 36.0378 23.9389 36.0335 23.8994 36.0272C23.8794 36.024 23.8562 36.0203 23.8294 36.0158C23.8159 36.0136 23.8016 36.0112 23.7863 36.0086C23.7786 36.0073 23.7707 36.006 23.7625 36.0046C23.7584 36.0039 23.7543 36.0032 23.7501 36.0025C23.7479 36.0021 23.7458 36.0018 23.7437 36.0014C23.7426 36.0012 23.741 36.001 23.7405 36.0009C23.7388 36.0006 23.7372 36.0003 27.329 14.9715ZM24.65 14.7375V-6.59582C18.9722 -6.59582 11.9245 -4.79498 6.27144 0.864313C0.597461 6.54459 -1.20333 13.6382 -1.20333 19.3935H20.13H41.4633C41.4633 22.1498 40.5555 26.9154 36.4581 31.0175C32.3815 35.0985 27.5938 36.0708 24.65 36.0708V14.7375ZM20.13 19.3935H-1.20333V22.0305H20.13H41.4633V19.3935H20.13ZM20.13 22.0305V0.697178H17.091V22.0305V43.3638H20.13V22.0305ZM17.091 22.0305H-4.24233V25.4905H17.091H38.4243V22.0305H17.091ZM17.091 25.4905V46.8238H20.13V25.4905V4.15718H17.091V25.4905ZM20.13 25.4905H-1.20333V33.8535H20.13H41.4633V25.4905H20.13ZM20.13 33.8535L23.4446 12.7792C27.9001 13.48 31.3333 17.2995 31.3333 21.9995H10H-11.3333C-11.3333 38.6755 0.889937 52.423 16.8154 54.9278L20.13 33.8535ZM10 21.9995H31.3333C31.3333 27.1546 27.1551 31.3328 22 31.3328V9.99951V-11.3338C3.59093 -11.3338 -11.3333 3.59044 -11.3333 21.9995H10ZM22 9.99951V31.3328C16.8461 31.3328 12.6667 27.1547 12.6667 21.9995H34H55.3333C55.3333 3.58828 40.4079 -11.3338 22 -11.3338V9.99951Z" fill="#D9D9D9" mask="url(#path-2-inside-1_104_160)"/>
<defs>
<linearGradient id="paint0_linear_104_160" x1="10" y1="21.927" x2="34" y2="21.927" gradientUnits="userSpaceOnUse">
<stop stop-color="#6A90FF"/>
<stop offset="1" stop-color="#32A69A"/>
</linearGradient>
</defs>
</svg>
