<svg width="44" height="44" viewBox="0 0 44 44" fill="none" xmlns="http://www.w3.org/2000/svg">
<path d="M4 0.499512H40C41.933 0.499512 43.5 2.06652 43.5 3.99951V39.9995C43.5 41.9325 41.933 43.4995 40 43.4995H4C2.067 43.4995 0.5 41.9325 0.5 39.9995V3.99951C0.5 2.06652 2.067 0.499512 4 0.499512Z" stroke="#D9D9D9"/>
<path d="M22 12.1615C25.204 12.1615 25.584 12.1735 26.849 12.2315C28.157 12.2915 29.504 12.5895 30.457 13.5425C31.419 14.5045 31.708 15.8385 31.768 17.1505C31.826 18.4155 31.838 18.7955 31.838 21.9995C31.838 25.2035 31.826 25.5835 31.768 26.8485C31.709 28.1495 31.404 29.5095 30.457 30.4565C29.495 31.4185 28.162 31.7075 26.849 31.7675C25.584 31.8255 25.204 31.8375 22 31.8375C18.796 31.8375 18.416 31.8255 17.151 31.7675C15.86 31.7085 14.482 31.3965 13.543 30.4565C12.586 29.4995 12.292 28.1525 12.232 26.8485C12.174 25.5835 12.162 25.2035 12.162 21.9995C12.162 18.7955 12.174 18.4155 12.232 17.1505C12.291 15.8545 12.599 14.4865 13.543 13.5425C14.503 12.5825 15.842 12.2915 17.151 12.2315C18.416 12.1735 18.796 12.1615 22 12.1615ZM22 9.99951C18.741 9.99951 18.332 10.0135 17.052 10.0715C15.197 10.1565 13.355 10.6725 12.014 12.0135C10.668 13.3595 10.157 15.1975 10.072 17.0515C10.014 18.3315 10 18.7405 10 21.9995C10 25.2585 10.014 25.6675 10.072 26.9475C10.157 28.8005 10.675 30.6475 12.014 31.9855C13.359 33.3305 15.2 33.8425 17.052 33.9275C18.332 33.9855 18.741 33.9995 22 33.9995C25.259 33.9995 25.668 33.9855 26.948 33.9275C28.802 33.8425 30.646 33.3255 31.986 31.9855C33.333 30.6385 33.843 28.8015 33.928 26.9475C33.986 25.6675 34 25.2585 34 21.9995C34 18.7405 33.986 18.3315 33.928 17.0515C33.843 15.1965 33.326 13.3535 31.986 12.0135C30.643 10.6705 28.797 10.1555 26.948 10.0715C25.668 10.0135 25.259 9.99951 22 9.99951Z" fill="#D9D9D9"/>
<path d="M21.9999 15.8374C18.5969 15.8374 15.8379 18.5964 15.8379 21.9994C15.8379 25.4024 18.5969 28.1614 21.9999 28.1614C25.4029 28.1614 28.1619 25.4024 28.1619 21.9994C28.1619 18.5964 25.4029 15.8374 21.9999 15.8374ZM21.9999 25.9994C19.7909 25.9994 17.9999 24.2084 17.9999 21.9994C17.9999 19.7904 19.7909 17.9994 21.9999 17.9994C24.2089 17.9994 25.9999 19.7904 25.9999 21.9994C25.9999 24.2084 24.2089 25.9994 21.9999 25.9994Z" fill="#D9D9D9"/>
<path d="M28.4058 17.0333C29.2011 17.0333 29.8458 16.3886 29.8458 15.5933C29.8458 14.798 29.2011 14.1533 28.4058 14.1533C27.6105 14.1533 26.9658 14.798 26.9658 15.5933C26.9658 16.3886 27.6105 17.0333 28.4058 17.0333Z" fill="#D9D9D9"/>
</svg>
