<svg width="74" height="75" viewBox="0 0 74 75" fill="none" xmlns="http://www.w3.org/2000/svg">
<circle cx="37" cy="37.512" r="35.5" stroke="url(#paint0_linear_0_1)" stroke-width="3"/>
<path d="M49 30.8453H27.6667C26.5213 30.8453 25.4373 30.3493 24.6867 29.5133C25.42 28.6946 26.4853 28.1786 27.6667 28.1786H51.6667C53.4107 28.1706 53.4093 25.5186 51.6667 25.512H27.6667C23.9853 25.512 21 28.4973 21 32.1786V45.512C21 49.1933 23.9853 52.1786 27.6667 52.1786H49C51.2093 52.1786 53 50.388 53 48.1786V34.8453C53 32.636 51.2093 30.8453 49 30.8453ZM47.6667 42.8453C45.9227 42.8373 45.9227 40.1866 47.6667 40.1786C49.4107 40.1866 49.4107 42.8373 47.6667 42.8453Z" fill="url(#paint1_linear_0_1)"/>
<defs>
<linearGradient id="paint0_linear_0_1" x1="0" y1="37.512" x2="74" y2="37.512" gradientUnits="userSpaceOnUse">
<stop stop-color="#6A90FF"/>
<stop offset="1" stop-color="#32A69A"/>
</linearGradient>
<linearGradient id="paint1_linear_0_1" x1="21" y1="38.8453" x2="53" y2="38.8453" gradientUnits="userSpaceOnUse">
<stop stop-color="#6A90FF"/>
<stop offset="1" stop-color="#32A69A"/>
</linearGradient>
</defs>
</svg>
