<svg width="74" height="75" viewBox="0 0 74 75" fill="none" xmlns="http://www.w3.org/2000/svg">
<circle cx="37" cy="37.512" r="35.5" stroke="url(#paint0_linear_0_1)" stroke-width="3"/>
<path d="M47.5296 23.0694L37.5056 19.727C37.1774 19.6177 36.8226 19.6177 36.4944 19.727L26.4704 23.0694C24.8767 23.5988 23.4903 24.617 22.5082 25.9793C21.5262 27.3417 20.9985 28.9788 21 30.6582V38.8454C21 50.9462 35.72 57.6294 36.3504 57.9078C36.5549 57.9987 36.7762 58.0456 37 58.0456C37.2238 58.0456 37.4451 57.9987 37.6496 57.9078C38.28 57.6294 53 50.9462 53 38.8454V30.6582C53.0015 28.9788 52.4738 27.3417 51.4918 25.9793C50.5097 24.617 49.1233 23.5988 47.5296 23.0694ZM44.5488 35.1926L37.7136 42.0278C37.4339 42.3094 37.101 42.5326 36.7344 42.6845C36.3677 42.8364 35.9745 42.9139 35.5776 42.9126H35.5248C35.1198 42.9064 34.7203 42.8181 34.3504 42.6531C33.9805 42.4881 33.648 42.2498 33.3728 41.9526L29.6832 38.1126C29.5234 37.9643 29.3956 37.785 29.3076 37.5856C29.2196 37.3862 29.1733 37.1709 29.1715 36.9529C29.1697 36.7349 29.2124 36.5189 29.2971 36.3181C29.3818 36.1172 29.5066 35.9358 29.664 35.7849C29.8213 35.634 30.0078 35.5169 30.212 35.4407C30.4162 35.3645 30.6338 35.3308 30.8515 35.3417C31.0692 35.3526 31.2824 35.4079 31.4779 35.5041C31.6735 35.6004 31.8474 35.7356 31.9888 35.9014L35.5792 39.6454L42.28 32.9254C42.5818 32.634 42.9859 32.4727 43.4054 32.4763C43.825 32.48 44.2263 32.6482 44.5229 32.9449C44.8196 33.2415 44.9878 33.6428 44.9915 34.0624C44.9951 34.4819 44.8339 34.886 44.5424 35.1878L44.5488 35.1926Z" fill="url(#paint1_linear_0_1)"/>
<defs>
<linearGradient id="paint0_linear_0_1" x1="0" y1="37.512" x2="74" y2="37.512" gradientUnits="userSpaceOnUse">
<stop stop-color="#6A90FF"/>
<stop offset="1" stop-color="#32A69A"/>
</linearGradient>
<linearGradient id="paint1_linear_0_1" x1="21" y1="38.8453" x2="53" y2="38.8453" gradientUnits="userSpaceOnUse">
<stop stop-color="#6A90FF"/>
<stop offset="1" stop-color="#32A69A"/>
</linearGradient>
</defs>
</svg>
