<svg width="74" height="75" viewBox="0 0 74 75" fill="none" xmlns="http://www.w3.org/2000/svg">
<circle cx="37" cy="37.512" r="35.5" stroke="url(#paint0_linear_0_1)" stroke-width="3"/>
<path d="M43.0298 29.717C41.3138 28.5384 39.2379 27.8451 36.9993 27.8451C31.1089 27.8451 26.3331 32.6209 26.3331 38.5113C26.3331 44.4017 31.1089 49.1775 36.9993 49.1775C42.8898 49.1775 47.6656 44.4017 47.6656 38.5113C47.6656 38.0593 47.6282 37.6153 47.5736 37.178H44.999C42.7898 37.178 40.9992 35.3874 40.9992 33.1782C40.9992 31.6889 41.8218 30.405 43.0298 29.717ZM41.8631 39.8059C42.4898 40.1952 42.6804 41.0205 42.2898 41.6458C41.9005 42.2685 41.0792 42.4578 40.4552 42.0698L36.294 39.4806C35.9034 39.2379 35.6661 38.81 35.6661 38.3486V31.8449C35.6661 31.1089 36.2634 30.5116 36.9993 30.5116C37.7353 30.5116 38.3326 31.1089 38.3326 31.8449V37.6127L41.8631 39.8059ZM52.9987 26.5118V31.8449C52.9987 33.3182 51.8054 34.5115 50.3321 34.5115H44.999C44.263 34.5115 43.6657 33.9142 43.6657 33.1782C43.6657 32.4422 44.263 31.8449 44.999 31.8449H48.5135C46.1283 27.7277 41.7938 25.1892 36.9993 25.1892V25.1785C29.6476 25.1785 23.6666 31.1596 23.6666 38.5113C23.6666 45.863 29.6476 51.8441 36.9993 51.8441C37.3193 51.8441 37.6366 51.8321 37.9513 51.8107C38.6939 51.7454 39.3232 52.3121 39.3752 53.0454C39.4286 53.78 38.8753 54.4173 38.1406 54.4693C37.7633 54.4973 37.3833 54.5106 36.9993 54.5106C28.177 54.5106 21 47.3336 21 38.5113C21 29.689 28.177 22.512 36.9993 22.512C37.0127 22.512 37.0233 22.5186 37.0367 22.52C42.4524 22.532 47.3936 25.2305 50.3321 29.677V26.5118C50.3321 25.7758 50.9294 25.1785 51.6654 25.1785C52.4014 25.1785 52.9987 25.7758 52.9987 26.5118ZM46.0483 50.1308C46.4469 50.7508 46.2683 51.5748 45.6483 51.9734C45.0363 52.3681 44.395 52.7214 43.7391 53.0254C43.5577 53.1094 43.3671 53.1494 43.1791 53.1494C42.6751 53.1494 42.1951 52.864 41.9685 52.3774C41.6591 51.7094 41.9485 50.9174 42.6164 50.6068C43.1604 50.3548 43.6951 50.0602 44.2044 49.7322C44.823 49.3362 45.6483 49.5148 46.047 50.1321L46.0483 50.1308ZM52.9987 38.5113C52.9987 39.2379 52.9493 39.9699 52.8533 40.6845C52.7627 41.3525 52.1907 41.8378 51.5334 41.8378C51.4734 41.8378 51.4134 41.8338 51.3521 41.8258C50.6228 41.7272 50.1108 41.0552 50.2108 40.3246C50.2921 39.7286 50.3334 39.1179 50.3334 38.5113C50.3334 37.774 50.9294 37.178 51.6667 37.178C52.404 37.178 52.9987 37.774 52.9987 38.5113ZM51.0428 46.1816C50.6961 46.815 50.3001 47.4323 49.8695 48.0176C49.6081 48.3709 49.2042 48.5575 48.7948 48.5575C48.5202 48.5575 48.2429 48.4735 48.0029 48.2976C47.4122 47.8589 47.2856 47.0243 47.7229 46.4323C48.0842 45.9443 48.4149 45.4297 48.7028 44.9017C49.0562 44.2564 49.8668 44.0164 50.5121 44.3737C51.1574 44.7284 51.3947 45.5377 51.0401 46.183L51.0428 46.1816Z" fill="url(#paint1_linear_0_1)"/>
<defs>
<linearGradient id="paint0_linear_0_1" x1="0" y1="37.512" x2="74" y2="37.512" gradientUnits="userSpaceOnUse">
<stop stop-color="#6A90FF"/>
<stop offset="1" stop-color="#32A69A"/>
</linearGradient>
<linearGradient id="paint1_linear_0_1" x1="21" y1="38.5113" x2="53" y2="38.5113" gradientUnits="userSpaceOnUse">
<stop stop-color="#6A90FF"/>
<stop offset="1" stop-color="#32A69A"/>
</linearGradient>
</defs>
</svg>
