<svg width="74" height="75" viewBox="0 0 74 75" fill="none" xmlns="http://www.w3.org/2000/svg">
<circle cx="37" cy="37.512" r="35.5" stroke="url(#paint0_linear_0_1)" stroke-width="3"/>
<path d="M39.6654 34.1781C39.6654 35.6487 38.4694 36.8447 36.9988 36.8447C35.5281 36.8447 34.3322 35.6487 34.3322 34.1781C34.3322 32.7074 35.5281 31.5114 36.9988 31.5114C38.4694 31.5114 39.6654 32.7074 39.6654 34.1781ZM49.2225 32.4674C48.9039 31.8928 48.4799 31.4528 47.9986 31.1408C47.1399 30.5861 46.6826 29.5661 46.9092 28.5702C47.0386 27.9982 47.0306 27.3742 46.8452 26.7289C46.5173 25.5836 45.5839 24.6502 44.4386 24.3222C43.7933 24.1369 43.1693 24.1289 42.5987 24.2582C41.6013 24.4849 40.5814 24.0289 40.0267 23.1689C39.7161 22.6876 39.2747 22.2636 38.7014 21.945C37.6588 21.3676 36.3401 21.3676 35.2975 21.945C34.7228 22.2636 34.2828 22.6876 33.9722 23.1689C33.4175 24.0276 32.3975 24.4849 31.4002 24.2582C30.8296 24.1289 30.2056 24.1369 29.5602 24.3222C28.4149 24.6502 27.4816 25.5836 27.1536 26.7289C26.9683 27.3742 26.9603 27.9995 27.0896 28.5702C27.3163 29.5675 26.859 30.5875 26.0003 31.1408C25.5177 31.4514 25.095 31.8928 24.7763 32.4674C24.4843 32.9927 24.343 33.5901 24.3457 34.1861C24.343 34.782 24.4857 35.378 24.7763 35.9047C25.095 36.4793 25.519 36.9193 26.0003 37.2313C26.859 37.786 27.3163 38.806 27.0896 39.8019C26.9603 40.3739 26.9683 40.9979 27.1536 41.6446C27.4816 42.7899 28.4149 43.7232 29.5602 44.0512C30.2056 44.2365 30.8296 44.2445 31.4002 44.1152C32.3975 43.8885 33.4175 44.3445 33.9722 45.2045C34.2828 45.6858 34.7228 46.1098 35.2975 46.4285C36.3401 47.0058 37.6601 47.0058 38.7014 46.4285C39.2761 46.1098 39.7161 45.6858 40.0267 45.2045C40.5814 44.3459 41.6013 43.8885 42.5987 44.1152C43.1693 44.2445 43.7933 44.2365 44.4386 44.0512C45.5839 43.7232 46.5173 42.7899 46.8452 41.6446C47.0306 40.9993 47.0386 40.3739 46.9092 39.8019C46.6826 38.8046 47.1399 37.7846 47.9986 37.2313C48.4812 36.9207 48.9039 36.4793 49.2225 35.9047C49.5145 35.3794 49.6559 34.782 49.6532 34.1861C49.6559 33.5901 49.5132 32.9941 49.2225 32.4674ZM36.9841 39.5139C34.0428 39.5139 31.6509 37.122 31.6509 34.1807C31.6509 31.2394 34.0428 28.8475 36.9841 28.8475C39.9254 28.8475 42.3173 31.2394 42.3173 34.1807C42.3173 37.122 39.9254 39.5139 36.9841 39.5139ZM31.8002 46.7538C30.8322 46.9431 29.8056 46.8951 28.8256 46.6138C26.9283 46.0698 25.387 44.6178 24.7177 42.7739L21.4711 46.0205C21.2137 46.2792 21.0497 46.6218 21.0097 46.9871C20.9124 47.8765 21.5551 48.6791 22.4444 48.7764L25.4057 49.1044L25.7323 52.0537C25.7697 52.4324 25.939 52.7764 26.1976 53.035C26.367 53.2044 26.5736 53.3363 26.807 53.4177C27.399 53.6297 28.0616 53.4763 28.4909 53.0364L33.2522 48.2751C32.6815 47.8498 32.1949 47.3418 31.7989 46.7551L31.8002 46.7538ZM52.9891 46.9858C52.9491 46.6218 52.7851 46.2778 52.5278 46.0192L49.2812 42.7726C48.6119 44.6165 47.0692 46.0698 45.1733 46.6125C44.192 46.8925 43.168 46.9405 42.1987 46.7525C41.804 47.3391 41.316 47.8471 40.7454 48.2724L45.5066 53.0337C45.9373 53.4737 46.5999 53.627 47.1906 53.415C47.4239 53.3337 47.6306 53.2017 47.7999 53.0324C48.0586 52.7737 48.2279 52.4284 48.2652 52.051L48.5919 49.1018L51.5532 48.7738C52.4425 48.6751 53.0851 47.8738 52.9878 46.9845L52.9891 46.9858Z" fill="url(#paint1_linear_0_1)"/>
<defs>
<linearGradient id="paint0_linear_0_1" x1="0" y1="37.512" x2="74" y2="37.512" gradientUnits="userSpaceOnUse">
<stop stop-color="#6A90FF"/>
<stop offset="1" stop-color="#32A69A"/>
</linearGradient>
<linearGradient id="paint1_linear_0_1" x1="21" y1="37.512" x2="52.9975" y2="37.512" gradientUnits="userSpaceOnUse">
<stop stop-color="#6A90FF"/>
<stop offset="1" stop-color="#32A69A"/>
</linearGradient>
</defs>
</svg>
