<svg width="24" height="24" viewBox="0 0 24 24" fill="none" xmlns="http://www.w3.org/2000/svg">
<path d="M1.82971 1.81539L2.87954 0.905531C4.08934 -0.304275 6.04903 -0.304275 7.25884 0.905531C7.28883 0.935526 9.13853 3.34514 9.13853 3.34514C10.2784 4.54495 10.2784 6.43464 9.13853 7.62445L7.97872 9.08422C9.43849 12.3937 11.7081 14.6733 14.9076 16.0331L16.3674 14.8633C17.5572 13.7135 19.4569 13.7135 20.6467 14.8633C20.6467 14.8633 23.0563 16.713 23.0863 16.743C24.2961 17.9528 24.2961 19.9125 23.1363 21.0723L22.1364 22.2221C20.9866 23.3719 19.4369 24.0018 17.7572 24.0018C10.1184 24.0018 0 13.8735 0 6.24467C0 4.57494 0.629898 3.01519 1.82971 1.82538V1.81539ZM17.7572 21.9921C18.897 21.9921 19.9468 21.5722 20.6667 20.8423L21.6665 19.6925C22.0765 19.2826 22.0965 18.6127 21.7065 18.1828C21.7065 18.1828 19.3169 16.3431 19.2869 16.3131C18.877 15.9031 18.1571 15.9031 17.7372 16.3131C17.7072 16.3431 15.6975 17.9528 15.6975 17.9528C15.4175 18.1728 15.0476 18.2328 14.7176 18.1028C10.5783 16.523 7.60878 13.5635 5.89905 9.29419C5.76907 8.96424 5.81907 8.5843 6.04903 8.29435C6.04903 8.29435 7.65877 6.27467 7.67877 6.25467C8.1087 5.82474 8.1087 5.13485 7.67877 4.70492C7.64877 4.67493 5.80907 2.28531 5.80907 2.28531C5.37914 1.89537 4.70924 1.90537 4.24932 2.3653L3.19949 3.27515C2.42961 4.04503 1.99968 5.09486 1.99968 6.23468C1.99968 13.1936 11.7681 21.9921 17.7572 21.9921Z" fill="white"/>
</svg>
