<svg width="24" height="24" viewBox="0 0 24 24" fill="none" xmlns="http://www.w3.org/2000/svg">
<path d="M23.1304 5.26203C22.8152 4.00254 21.8087 3.04185 20.5634 2.81394C20.2003 2.74742 19.835 2.68635 19.4675 2.62856V1.61225C19.4675 1.01031 18.979 0.521786 18.377 0.521786C17.7751 0.521786 17.2866 1.01031 17.2866 1.61225V2.33959C13.8047 1.96338 10.1942 1.96338 6.71235 2.33959V1.61225C6.71235 1.01031 6.22382 0.521786 5.62188 0.521786C5.01995 0.521786 4.53142 1.01031 4.53142 1.61225V2.62856C4.16393 2.68635 3.79863 2.74742 3.4355 2.81394C2.19129 3.04076 1.1837 4.00145 0.868554 5.26094C-0.289518 9.89104 -0.289518 15.6432 0.868554 20.2744C1.1837 21.5339 2.19129 22.4946 3.4355 22.7214C6.19656 23.2252 9.09828 23.4782 12 23.4782C14.9017 23.4782 17.8024 23.2263 20.5645 22.7214C21.8087 22.4946 22.8163 21.5339 23.1314 20.2744C24.2895 15.6443 24.2884 9.89213 23.1304 5.26203ZM3.82698 4.95997C6.46263 4.47908 9.23022 4.23808 11.9989 4.23808C14.7676 4.23808 17.5363 4.47908 20.1708 4.95997C20.5754 5.03303 20.9058 5.36017 21.0138 5.7909C21.1075 6.16711 21.1926 6.55314 21.27 6.94679H2.72779C2.80522 6.55314 2.89027 6.16711 2.98405 5.7909C3.09201 5.36017 3.42242 5.03412 3.82698 4.95997ZM21.0138 19.7456C20.9058 20.1763 20.5754 20.5023 20.1708 20.5765C14.9006 21.5394 9.09719 21.5394 3.82698 20.5765C3.42242 20.5034 3.09201 20.1763 2.98405 19.7456C2.18583 16.556 1.98955 12.6641 2.39193 9.12772H21.6059C22.0094 12.6652 21.812 16.556 21.0138 19.7456Z" fill="white"/>
<path d="M7.29994 14.1831C7.90218 14.1831 8.3904 13.6949 8.3904 13.0926C8.3904 12.4904 7.90218 12.0022 7.29994 12.0022C6.69769 12.0022 6.20947 12.4904 6.20947 13.0926C6.20947 13.6949 6.69769 14.1831 7.29994 14.1831Z" fill="white"/>
<path d="M7.29994 18.2549C7.90218 18.2549 8.3904 17.7667 8.3904 17.1644C8.3904 16.5622 7.90218 16.074 7.29994 16.074C6.69769 16.074 6.20947 16.5622 6.20947 17.1644C6.20947 17.7667 6.69769 18.2549 7.29994 18.2549Z" fill="white"/>
<path d="M12.004 14.1744C12.6063 14.1744 13.0945 13.6862 13.0945 13.0839C13.0945 12.4817 12.6063 11.9935 12.004 11.9935C11.4018 11.9935 10.9136 12.4817 10.9136 13.0839C10.9136 13.6862 11.4018 14.1744 12.004 14.1744Z" fill="white"/>
<path d="M12.004 18.2462C12.6063 18.2462 13.0945 17.758 13.0945 17.1557C13.0945 16.5535 12.6063 16.0653 12.004 16.0653C11.4018 16.0653 10.9136 16.5535 10.9136 17.1557C10.9136 17.758 11.4018 18.2462 12.004 18.2462Z" fill="white"/>
<path d="M16.6998 14.1744C17.3021 14.1744 17.7903 13.6862 17.7903 13.0839C17.7903 12.4817 17.3021 11.9935 16.6998 11.9935C16.0976 11.9935 15.6094 12.4817 15.6094 13.0839C15.6094 13.6862 16.0976 14.1744 16.6998 14.1744Z" fill="white"/>
<path d="M16.6998 18.2462C17.3021 18.2462 17.7903 17.758 17.7903 17.1557C17.7903 16.5535 17.3021 16.0653 16.6998 16.0653C16.0976 16.0653 15.6094 16.5535 15.6094 17.1557C15.6094 17.758 16.0976 18.2462 16.6998 18.2462Z" fill="white"/>
</svg>
