<svg width="44" height="44" viewBox="0 0 44 44" fill="none" xmlns="http://www.w3.org/2000/svg">
<path d="M4 0.499512H40C41.933 0.499512 43.5 2.06652 43.5 3.99951V39.9995C43.5 41.9325 41.933 43.4995 40 43.4995H4C2.067 43.4995 0.5 41.9325 0.5 39.9995V3.99951C0.5 2.06652 2.067 0.499512 4 0.499512Z" stroke="#D9D9D9"/>
<path d="M32.9289 19.8659C30.7898 19.8659 28.8067 19.1819 27.1886 18.0198V26.4052C27.1886 30.5934 23.7815 33.9995 19.5943 33.9995C17.9762 33.9995 16.4752 33.4895 15.2421 32.6235C13.2841 31.2484 12 28.9743 12 26.4052C12 22.217 15.4071 18.8099 19.5953 18.8099C19.9433 18.8099 20.2833 18.8389 20.6184 18.8839V19.8609V23.0961C20.2943 22.9951 19.9523 22.9361 19.5953 22.9361C17.6832 22.9361 16.1272 24.4921 16.1272 26.4052C16.1272 27.7373 16.8832 28.8943 17.9872 29.4753C18.4683 29.7283 19.0153 29.8733 19.5963 29.8733C21.4644 29.8733 22.9885 28.3873 23.0585 26.5352L23.0615 9.99951H27.1876C27.1876 10.3575 27.2226 10.7065 27.2846 11.0466C27.5756 12.6186 28.5087 13.9677 29.8017 14.8107C30.7018 15.3977 31.7758 15.7408 32.9279 15.7408L32.9289 19.8659Z" fill="#D9D9D9"/>
</svg>
