<svg width="44" height="44" viewBox="0 0 44 44" fill="none" xmlns="http://www.w3.org/2000/svg">
<path d="M4 0.499512H40C41.933 0.499512 43.5 2.06652 43.5 3.99951V39.9995C43.5 41.9325 41.933 43.4995 40 43.4995H4C2.067 43.4995 0.5 41.9325 0.5 39.9995V3.99951C0.5 2.06652 2.067 0.499512 4 0.499512Z" stroke="#D9D9D9"/>
<path d="M28.9 10.9995H32.582L24.54 20.1885L34 32.6945H26.595L20.791 25.1115L14.157 32.6945H10.469L19.069 22.8635L10 10.9995H17.593L22.834 17.9305L28.9 10.9995ZM27.607 30.4935H29.646L16.482 13.0855H14.292L27.607 30.4935Z" fill="#D9D9D9"/>
</svg>
